<svg width="19" height="18" viewBox="0 0 19 18" fill="none" xmlns="http://www.w3.org/2000/svg">
<path d="M9.5 0.46875C4.78854 0.46875 0.96875 4.28854 0.96875 9C0.96875 13.7115 4.78854 17.5312 9.5 17.5312C14.2115 17.5312 18.0312 13.7115 18.0312 9C18.0312 4.28854 14.2115 0.46875 9.5 0.46875ZM13.4375 10.3125H9.5C9.32595 10.3125 9.15903 10.2434 9.03596 10.1203C8.91289 9.99722 8.84375 9.8303 8.84375 9.65625V3.75C8.84375 3.57595 8.91289 3.40903 9.03596 3.28596C9.15903 3.16289 9.32595 3.09375 9.5 3.09375C9.67405 3.09375 9.84097 3.16289 9.96404 3.28596C10.0871 3.40903 10.1562 3.57595 10.1562 3.75V9H13.4375C13.6115 9 13.7785 9.06914 13.9015 9.19221C14.0246 9.31528 14.0938 9.4822 14.0938 9.65625C14.0938 9.8303 14.0246 9.99722 13.9015 10.1203C13.7785 10.2434 13.6115 10.3125 13.4375 10.3125Z" fill="#FF6504"/>
</svg>
