<svg width="26" height="26" viewBox="0 0 26 26" fill="none" xmlns="http://www.w3.org/2000/svg">
<path fill-rule="evenodd" clip-rule="evenodd" d="M16.8 21.2H22.3029C23.2402 21.2 24 20.4402 24 19.5029C24 19.0529 23.8212 18.6212 23.5029 18.3029L22.3029 17.1029C21.8529 16.6529 21.6 16.0424 21.6 15.4059L21.6 11.5648C21.6 6.28231 17.3177 2 12.0352 2C6.74147 2 2.45452 6.29983 2.47041 11.5935L2.48177 15.3771C2.48373 16.0306 2.21914 16.6566 1.74911 17.1106L0.514363 18.3032C0.185646 18.6207 2.48951e-06 19.0581 0 19.5151C0 20.4456 0.754353 21.2 1.68489 21.2H7.2C7.2 23.851 9.34904 26 12 26C14.651 26 16.8 23.851 16.8 21.2ZM21.0302 18.3757L22.0544 19.4H1.96976L2.99961 18.4053C3.82216 17.6108 4.28519 16.5153 4.28176 15.3717L4.2704 11.5881C4.2575 7.29065 7.73769 3.8 12.0352 3.8C16.3236 3.8 19.8 7.27642 19.8 11.5648L19.8 15.4059C19.8 16.5198 20.2425 17.5881 21.0302 18.3757ZM15 21.2H9C9 22.8569 10.3431 24.2 12 24.2C13.6569 24.2 15 22.8569 15 21.2Z" fill="#43465C"/>
<path d="M20.6992 9C22.9084 9 24.6992 7.20914 24.6992 5C24.6992 2.79086 22.9084 1 20.6992 1C18.4901 1 16.6992 2.79086 16.6992 5C16.6992 7.20914 18.4901 9 20.6992 9Z" fill="#FF6E91" stroke="white" stroke-width="2"/>
</svg>
